# xmcd
#
# Track frame offsets: 
#        150
#        15677
#        41997
#        63902
#        81980
#        111498
#        128134
#        146861
#        161028
#        175784
#        197290
#        212654
#
# Disc length: 3062 seconds
#
# Revision: 0
# Processed by: cddbd v1.5.2PL0 Copyright (c) Steve Scherf et al.
# Submitted via: ExactAudioCopy v0.99pb5
#
DISCID=ad0bf40c
DTITLE=The Force - The Force
DYEAR=2005
DGENRE=Blues Rock 
TTITLE0=Feel Alright (On A Saturday Night)
TTITLE1=Bad Luck
TTITLE2=Stray Dogs
TTITLE3=Ain't Talking About Love
TTITLE4=Wild Horses
TTITLE5=When The Night Comes Down
TTITLE6=Ain't Enough Love
TTITLE7=Boogie On Down
TTITLE8=Double Trouble
TTITLE9=Road To Nowhere
TTITLE10=Keep On Running
TTITLE11=Woman On My Mind
EXTD=
EXTT0=
EXTT1=
EXTT2=
EXTT3=
EXTT4=
EXTT5=
EXTT6=
EXTT7=
EXTT8=
EXTT9=
EXTT10=
EXTT11=
PLAYORDER=
